<svg width="30" height="30" viewBox="0 0 50 50" fill="none" xmlns="http://www.w3.org/2000/svg">
<path d="M25 50C11.1895 50 0 38.8105 0 25C0 11.1895 11.1895 0 25 0C38.8105 0 50 11.1895 50 25C50 38.8105 38.8105 50 25 50ZM36.6935 20.5645H25V13.4173C25 12.3387 23.6895 11.7944 22.9335 12.5605L11.4113 24.1431C10.9375 24.6169 10.9375 25.373 11.4113 25.8468L22.9335 37.4294C23.6996 38.1956 25 37.6512 25 36.5726V29.4355H36.6935C37.3589 29.4355 37.9032 28.8911 37.9032 28.2258V21.7742C37.9032 21.1089 37.3589 20.5645 36.6935 20.5645Z" fill="white"/>
</svg>
