<svg width="35" height="25" viewBox="0 0 25 20" fill="none" xmlns="http://www.w3.org/2000/svg">
<path d="M22.6562 0H2.34375C1.0498 0 0 0.959821 0 2.14286V17.8571C0 19.0402 1.0498 20 2.34375 20H22.6562C23.9502 20 25 19.0402 25 17.8571V2.14286C25 0.959821 23.9502 0 22.6562 0ZM18.5742 12.9688C18.8086 13.183 18.8086 13.5313 18.5742 13.7455L16.5967 15.5536C16.3623 15.7679 15.9814 15.7679 15.7471 15.5536L12.5 12.558L9.25293 15.5536C9.01855 15.7679 8.6377 15.7679 8.40332 15.5536L6.42578 13.7455C6.19141 13.5313 6.19141 13.183 6.42578 12.9688L9.70215 10L6.42578 7.03125C6.19141 6.81696 6.19141 6.46875 6.42578 6.25446L8.40332 4.44643C8.6377 4.23214 9.01855 4.23214 9.25293 4.44643L12.5 7.44196L15.7471 4.44643C15.9814 4.23214 16.3623 4.23214 16.5967 4.44643L18.5742 6.25446C18.8086 6.46875 18.8086 6.81696 18.5742 7.03125L15.2979 10L18.5742 12.9688Z" fill="black"/>
</svg>
