<svg width="37" height="38" viewBox="0 0 37 38" fill="none" xmlns="http://www.w3.org/2000/svg">
<path d="M17.7969 10.4675L6.09058 22.866V36.2476C6.09058 36.5941 6.19761 36.9264 6.38813 37.1714C6.57864 37.4164 6.83704 37.554 7.10647 37.554L14.2215 37.5303C14.4901 37.5286 14.7472 37.3902 14.9366 37.1454C15.126 36.9006 15.2324 36.5693 15.2324 36.2239V28.4092C15.2324 28.0628 15.3394 27.7305 15.5299 27.4855C15.7204 27.2405 15.9788 27.1028 16.2482 27.1028H20.3118C20.5813 27.1028 20.8397 27.2405 21.0302 27.4855C21.2207 27.7305 21.3277 28.0628 21.3277 28.4092V36.2182C21.3273 36.3901 21.3533 36.5604 21.4041 36.7194C21.455 36.8784 21.5298 37.0229 21.6241 37.1446C21.7185 37.2664 21.8306 37.363 21.9541 37.4289C22.0776 37.4948 22.2099 37.5287 22.3436 37.5287L29.4561 37.554C29.7256 37.554 29.984 37.4164 30.1745 37.1714C30.365 36.9264 30.472 36.5941 30.472 36.2476V22.8571L18.7683 10.4675C18.6307 10.3249 18.4593 10.2471 18.2826 10.2471C18.1058 10.2471 17.9344 10.3249 17.7969 10.4675ZM36.288 18.8946L30.98 13.2681V1.9588C30.98 1.69894 30.8997 1.44973 30.7568 1.26598C30.6139 1.08223 30.4201 0.979004 30.2181 0.979004H26.6624C26.4604 0.979004 26.2666 1.08223 26.1237 1.26598C25.9808 1.44973 25.9005 1.69894 25.9005 1.9588V7.88739L20.2159 1.87307C19.6704 1.29579 18.9859 0.980158 18.2794 0.980158C17.5729 0.980158 16.8884 1.29579 16.3429 1.87307L0.270775 18.8946C0.193623 18.9766 0.129792 19.0773 0.0829286 19.1911C0.0360654 19.3048 0.00708884 19.4293 -0.00234539 19.5575C-0.0117796 19.6856 -0.00148664 19.8149 0.0279454 19.9379C0.0573775 20.0609 0.105372 20.1753 0.169186 20.2745L1.78827 22.8056C1.85191 22.9051 1.93019 22.9875 2.01862 23.0481C2.10705 23.1086 2.20391 23.1462 2.30364 23.1585C2.40337 23.1709 2.50401 23.1578 2.59981 23.1201C2.69562 23.0824 2.78469 23.0207 2.86194 22.9387L17.7969 7.11988C17.9344 6.97726 18.1058 6.89948 18.2826 6.89948C18.4593 6.89948 18.6307 6.97726 18.7683 7.11988L33.7038 22.9387C33.781 23.0208 33.8699 23.0825 33.9656 23.1203C34.0612 23.1582 34.1618 23.1714 34.2614 23.1593C34.3611 23.1472 34.4579 23.1099 34.5463 23.0496C34.6348 22.9894 34.7131 22.9073 34.7769 22.8081L36.396 20.2769C36.4597 20.1772 36.5075 20.0622 36.5366 19.9387C36.5657 19.8151 36.5755 19.6854 36.5655 19.5569C36.5554 19.4284 36.5257 19.3038 36.4781 19.1901C36.4305 19.0765 36.3659 18.976 36.288 18.8946Z" fill="#7B0828"/>
</svg>
