<svg width="38" height="38" viewBox="0 0 38 38" fill="none" xmlns="http://www.w3.org/2000/svg">
<path d="M18.7787 1.96043C18.849 2.29618 20.1942 8.71107 20.1942 11.1613C20.1942 14.8974 17.75 17.5619 14.1365 18.6334L15.2707 35.6422C15.3322 36.6209 14.3739 37.4495 13.1606 37.4495H7.53365C6.32914 37.4495 5.36201 36.628 5.42356 35.6422L6.55773 18.6334C2.9354 17.5619 0.5 14.8902 0.5 11.1613C0.5 8.70393 1.84519 2.29618 1.91552 1.96043C2.19687 0.510294 5.89833 0.488863 6.12692 2.03901V12.1257C6.24122 12.3686 7.45453 12.3543 7.53365 12.1257C7.65674 10.3184 8.22823 2.18188 8.23702 1.99615C8.52716 0.510294 12.1671 0.510294 12.4484 1.99615C12.466 2.18902 13.0287 10.3184 13.1518 12.1257C13.2309 12.3543 14.453 12.3686 14.5585 12.1257V2.03901C14.7871 0.496006 18.4974 0.510294 18.7787 1.96043ZM29.2589 22.3695L27.94 35.5922C27.8345 36.5923 28.8105 37.4495 30.0413 37.4495H34.9649C36.1343 37.4495 37.075 36.6852 37.075 35.7351V2.58906C37.075 1.64612 36.1343 0.874614 34.9649 0.874614C27.7114 0.874614 15.4993 13.6258 29.2589 22.3695Z" fill="#00A878"/>
</svg>
