<svg width="40" height="40" viewBox="0 0 31 30" fill="none" xmlns="http://www.w3.org/2000/svg">
<path d="M14.974 7.78279L5.3721 17.9524V28.9285C5.3721 29.2126 5.45989 29.4852 5.61616 29.6862C5.77243 29.8871 5.98437 30 6.20537 30L12.0414 29.9806C12.2616 29.9792 12.4725 29.8656 12.6279 29.6648C12.7833 29.464 12.8705 29.1923 12.8705 28.909V22.4992C12.8705 22.215 12.9583 21.9424 13.1145 21.7415C13.2708 21.5405 13.4828 21.4276 13.7037 21.4276H17.0368C17.2578 21.4276 17.4698 21.5405 17.626 21.7415C17.7823 21.9424 17.8701 22.215 17.8701 22.4992V28.9043C17.8698 29.0453 17.8911 29.185 17.9328 29.3154C17.9745 29.4458 18.0358 29.5644 18.1132 29.6642C18.1906 29.7641 18.2826 29.8433 18.3839 29.8974C18.4851 29.9514 18.5937 29.9792 18.7034 29.9792L24.5373 30C24.7583 30 24.9702 29.8871 25.1265 29.6862C25.2828 29.4852 25.3706 29.2126 25.3706 28.9285V17.9451L15.7708 7.78279C15.6579 7.6658 15.5173 7.60201 15.3724 7.60201C15.2274 7.60201 15.0868 7.6658 14.974 7.78279ZM30.141 14.6949L25.7872 10.0799V0.803661C25.7872 0.590517 25.7213 0.386103 25.6041 0.235387C25.4869 0.0846713 25.328 0 25.1622 0H22.2458C22.08 0 21.9211 0.0846713 21.8039 0.235387C21.6867 0.386103 21.6208 0.590517 21.6208 0.803661V5.66648L16.9582 0.733341C16.5107 0.259836 15.9492 0.000946542 15.3698 0.000946542C14.7903 0.000946542 14.2288 0.259836 13.7813 0.733341L0.598509 14.6949C0.535226 14.7622 0.482869 14.8448 0.444431 14.9381C0.405992 15.0314 0.382225 15.1335 0.374486 15.2387C0.366748 15.3438 0.375191 15.4498 0.399332 15.5507C0.423473 15.6516 0.462839 15.7454 0.515182 15.8268L1.8432 17.9029C1.8954 17.9845 1.95961 18.0521 2.03215 18.1018C2.10468 18.1514 2.18413 18.1822 2.26593 18.1924C2.34773 18.2025 2.43028 18.1918 2.50886 18.1609C2.58744 18.1299 2.6605 18.0794 2.72387 18.0121L14.974 5.03695C15.0868 4.91996 15.2274 4.85617 15.3724 4.85617C15.5173 4.85617 15.6579 4.91996 15.7708 5.03695L28.0214 18.0121C28.0846 18.0794 28.1576 18.13 28.2361 18.161C28.3145 18.1921 28.397 18.2029 28.4787 18.193C28.5605 18.183 28.6399 18.1525 28.7124 18.103C28.785 18.0536 28.8492 17.9863 28.9015 17.9049L30.2296 15.8288C30.2818 15.747 30.321 15.6527 30.3449 15.5513C30.3688 15.45 30.3768 15.3436 30.3686 15.2382C30.3603 15.1328 30.336 15.0306 30.297 14.9374C30.2579 14.8441 30.2049 14.7617 30.141 14.6949Z" fill="white"/>
</svg>
