<svg width="37" height="31" viewBox="0 0 39 31" fill="none" xmlns="http://www.w3.org/2000/svg">
<path d="M37.2969 25.4167H4.8125V1.2709C4.8125 0.568767 4.2741 6.86646e-05 3.60938 6.86646e-05H1.20312C0.538398 6.86646e-05 0 0.568767 0 1.2709V27.9584C0 29.3619 1.07755 30.5001 2.40625 30.5001H37.2969C37.9616 30.5001 38.5 29.9314 38.5 29.2292V26.6876C38.5 25.9854 37.9616 25.4167 37.2969 25.4167ZM34.8906 2.54174H26.0131C24.4054 2.54174 23.6 4.59493 24.737 5.79586L27.1733 8.3693L21.6562 14.1977L16.1392 8.37009C15.1992 7.37726 13.6758 7.37726 12.7366 8.37009L7.57142 13.8259C7.10145 14.3224 7.10145 15.127 7.57142 15.6234L9.27233 17.42C9.7423 17.9164 10.504 17.9164 10.974 17.42L14.4375 13.7608L19.9546 19.5884C20.8945 20.5812 22.418 20.5812 23.3572 19.5884L30.5759 11.9634L33.0122 14.5368C34.1492 15.7378 36.093 14.8871 36.093 13.1889V3.81257C36.0938 3.11043 35.5554 2.54174 34.8906 2.54174Z" fill="#DC6BAD"/>
</svg>
