<svg width="38" height="32" viewBox="0 0 38 32" fill="none" xmlns="http://www.w3.org/2000/svg">
<path d="M24.829 15.9267C23.8632 15.9267 22.9546 15.316 22.4632 14.3389L18.7888 7.10552L15.1201 14.3389C14.6229 15.3228 13.7143 15.9335 12.7486 15.9335C12.4914 15.9335 12.2343 15.8928 11.9885 15.8046L4.15969 13.1446V25.2229C4.15969 26.2204 4.73114 27.0889 5.54259 27.3264L17.8973 30.9974C18.4802 31.167 19.0916 31.167 19.6688 30.9974L32.0349 27.3264C32.8464 27.0821 33.4178 26.2136 33.4178 25.2229V13.1446L25.589 15.7978C25.3433 15.886 25.0861 15.9267 24.829 15.9267ZM36.978 8.31334L34.035 1.33782C33.8579 0.917113 33.475 0.672833 33.0807 0.733903L18.7888 2.89849L24.0289 13.2193C24.2461 13.6468 24.6804 13.8503 25.0861 13.7146L36.3951 9.8808C36.9608 9.68402 37.2351 8.93761 36.978 8.31334ZM3.54252 1.33782L0.599565 8.31334C0.336699 8.93761 0.616708 9.68402 1.17673 9.87402L12.4857 13.7078C12.8914 13.8436 13.3257 13.64 13.5429 13.2125L18.7888 2.89849L4.49113 0.733903C4.09683 0.679619 3.71967 0.917113 3.54252 1.33782Z" fill="#79ADDC"/>
</svg>
