<svg width="35" height="30" viewBox="0 0 35 30" fill="none" xmlns="http://www.w3.org/2000/svg">
<path d="M23.2485 14.9019C22.3335 14.9019 21.4728 14.3234 21.0072 13.3977L17.5261 6.54501L14.0505 13.3977C13.5795 14.3298 12.7188 14.9084 11.8038 14.9084C11.5602 14.9084 11.3166 14.8698 11.0838 14.7862L3.66702 12.2663V23.7088C3.66702 24.6538 4.2084 25.4767 4.97714 25.7016L16.6816 29.1794C17.2338 29.3401 17.8131 29.3401 18.3599 29.1794L30.0752 25.7016C30.8439 25.4702 31.3853 24.6474 31.3853 23.7088V12.2663L23.9685 14.7798C23.7357 14.8634 23.4921 14.9019 23.2485 14.9019ZM34.758 7.68927L31.97 1.08087C31.8021 0.682314 31.4394 0.450892 31.0659 0.508747L17.5261 2.55941L22.4905 12.337C22.6963 12.742 23.1077 12.9348 23.4921 12.8063L34.2058 9.17423C34.7418 8.98781 35.0016 8.28068 34.758 7.68927ZM3.08234 1.08087L0.294276 7.68927C0.0452447 8.28068 0.310517 8.98781 0.841062 9.1678L11.5548 12.7998C11.9392 12.9284 12.3506 12.7356 12.5564 12.3306L17.5261 2.55941L3.98102 0.508747C3.60747 0.45732 3.25017 0.682314 3.08234 1.08087Z" fill="#E6E8E6"/>
</svg>
