<svg width="50" height="50" viewBox="0 0 50 50" fill="none" xmlns="http://www.w3.org/2000/svg">
<path d="M49.308 27.2118L32.6405 49.0832C31.1523 51.036 28.5728 49.669 28.5728 46.87V34.3721H15.0801C13.7606 34.3721 12.699 32.9791 12.699 31.2476V18.7497C12.699 17.0182 13.7606 15.6252 15.0801 15.6252H28.5728V3.12725C28.5728 0.341254 31.1424 -1.03872 32.6405 0.914076L49.308 22.7854C50.2307 24.0092 50.2307 25.988 49.308 27.2118ZM19.0486 48.4322V43.2248C19.0486 42.3655 18.5128 41.6625 17.858 41.6625H9.52428C7.76824 41.6625 6.34952 39.8008 6.34952 37.4965V12.5007C6.34952 10.1964 7.76824 8.33472 9.52428 8.33472H17.858C18.5128 8.33472 19.0486 7.63171 19.0486 6.77248V1.56501C19.0486 0.705777 18.5128 0.00276889 17.858 0.00276889H9.52428C4.26608 0.00276889 0 5.6008 0 12.5007V37.4965C0 44.3964 4.26608 49.9945 9.52428 49.9945H17.858C18.5128 49.9945 19.0486 49.2915 19.0486 48.4322Z" fill="white"/>
</svg>
