<svg width="39" height="39" viewBox="0 0 39 39" fill="none" xmlns="http://www.w3.org/2000/svg">
<path d="M24.0625 26.125C24.0625 26.8846 23.5241 27.5 22.8594 27.5H15.6406C14.9759 27.5 14.4375 26.8846 14.4375 26.125V22H0V34.375C0 36.575 1.68438 38.5 3.60938 38.5H34.8906C36.8156 38.5 38.5 36.575 38.5 34.375V22H24.0625V26.125ZM34.8906 8.24995H28.875V4.12495C28.875 1.92495 27.1906 -4.57764e-05 25.2656 -4.57764e-05H13.2344C11.3094 -4.57764e-05 9.625 1.92495 9.625 4.12495V8.24995H3.60938C1.68438 8.24995 0 10.175 0 12.375V19.25H38.5V12.375C38.5 10.175 36.8156 8.24995 34.8906 8.24995ZM24.0625 8.24995H14.4375V5.49995H24.0625V8.24995Z" fill="#2E6171"/>
</svg>
