<svg width="37" height="38" viewBox="0 0 37 38" fill="none" xmlns="http://www.w3.org/2000/svg">
<path d="M35.6591 16.9762H33.7858C33.227 15.5475 32.4142 14.2831 31.4109 13.2258L32.611 7.83242H30.579C28.7121 7.83242 27.0611 8.7968 25.9435 10.2827C25.4609 10.2041 24.9846 10.1184 24.483 10.1184H16.3549C11.4399 10.1184 7.3441 14.0473 6.39794 19.2621H3.65471C2.7149 19.2621 1.97194 18.2977 2.16244 17.2048C2.30214 16.3904 2.9816 15.8332 3.71821 15.8332H3.78171C3.99126 15.8332 4.16271 15.6403 4.16271 15.4046V13.9759C4.16271 13.7401 3.99126 13.5473 3.78171 13.5473C1.97194 13.5473 0.359019 15.0046 0.130416 17.019C-0.148987 19.4621 1.54013 21.548 3.65471 21.548H6.19474C6.19474 25.277 7.80766 28.5559 10.2588 30.6418V36.4066C10.2588 37.0353 10.716 37.5496 11.2748 37.5496H15.3388C15.8977 37.5496 16.3549 37.0353 16.3549 36.4066V32.9777H24.483V36.4066C24.483 37.0353 24.9402 37.5496 25.499 37.5496H29.563C30.1218 37.5496 30.579 37.0353 30.579 36.4066V30.6418C31.3283 30.006 31.9951 29.2559 32.5666 28.4059H35.6591C36.2179 28.4059 36.6751 27.8915 36.6751 27.2629V18.1191C36.6751 17.4905 36.2179 16.9762 35.6591 16.9762ZM27.531 21.548C26.9722 21.548 26.515 21.0337 26.515 20.4051C26.515 19.7764 26.9722 19.2621 27.531 19.2621C28.0898 19.2621 28.547 19.7764 28.547 20.4051C28.547 21.0337 28.0898 21.548 27.531 21.548ZM16.3549 7.83242H24.483C24.8259 7.83242 25.1624 7.861 25.4926 7.88957C25.4926 7.86814 25.499 7.85385 25.499 7.83242C25.499 4.04634 22.7684 0.974609 19.4029 0.974609C16.0374 0.974609 13.3068 4.04634 13.3068 7.83242C13.3068 7.98244 13.3386 8.12531 13.3449 8.27532C14.3101 7.99672 15.3134 7.83242 16.3549 7.83242Z" fill="#FFC759"/>
</svg>
