<svg width="40" height="40" viewBox="0 0 41 40" fill="none" xmlns="http://www.w3.org/2000/svg">
<path d="M0.546509 11.2012V9.60138C0.546509 8.27602 1.38401 7.20163 2.41715 7.20163H30.4767V2.40214C30.4767 0.265665 32.4954 -0.801722 33.6702 0.705219L39.9056 8.70437C40.6361 9.64157 40.6361 11.161 39.9056 12.0981L33.6702 20.0973C32.4998 21.5983 30.4767 20.5458 30.4767 18.4004V13.601H2.41715C1.38401 13.601 0.546509 12.5266 0.546509 11.2012ZM38.5829 26.3996H10.5233V21.6001C10.5233 19.4689 8.50748 18.3924 7.32984 19.9032L1.09437 27.9023C0.363888 28.8395 0.363888 30.359 1.09437 31.2961L7.32984 39.2952C8.50117 40.7978 10.5233 39.7419 10.5233 37.5984V32.7989H38.5829C39.616 32.7989 40.4535 31.7245 40.4535 30.3992V28.7993C40.4535 27.474 39.616 26.3996 38.5829 26.3996Z" fill="white"/>
</svg>
