<svg width="39" height="31" viewBox="0 0 39 31" fill="none" xmlns="http://www.w3.org/2000/svg">
<path d="M0 27.2321C0 29.0362 1.43707 30.5 3.20833 30.5H35.2917C37.0629 30.5 38.5 29.0362 38.5 27.2321V15.25H0V27.2321ZM12.8333 22.6026C12.8333 22.1533 13.1943 21.7857 13.6354 21.7857H22.7257C23.1668 21.7857 23.5278 22.1533 23.5278 22.6026V25.3258C23.5278 25.7752 23.1668 26.1428 22.7257 26.1428H13.6354C13.1943 26.1428 12.8333 25.7752 12.8333 25.3258V22.6026ZM4.27778 22.6026C4.27778 22.1533 4.63872 21.7857 5.07986 21.7857H9.89236C10.3335 21.7857 10.6944 22.1533 10.6944 22.6026V25.3258C10.6944 25.7752 10.3335 26.1428 9.89236 26.1428H5.07986C4.63872 26.1428 4.27778 25.7752 4.27778 25.3258V22.6026ZM38.5 3.26781V6.53567H0V3.26781C0 1.46368 1.43707 -4.57764e-05 3.20833 -4.57764e-05H35.2917C37.0629 -4.57764e-05 38.5 1.46368 38.5 3.26781Z" fill="#EB8258"/>
</svg>
